<?xml version="1.0" encoding="UTF-8" standalone="no"?>
<!-- Created with Inkscape (http://www.inkscape.org/) -->

<svg
   width="100"
   height="100"
   viewBox="0 0 26.458333 26.458334"
   version="1.1"
   id="svg5"
   inkscape:version="1.1.1 (3bf5ae0d25, 2021-09-20)"
   sodipodi:docname="player_head.svg"
   inkscape:export-filename="C:\Users\Molor\OneDrive\Documents\projects\unity\Don't lag behind!\Assets\Sprites\player_head.png"
   inkscape:export-xdpi="96.036186"
   inkscape:export-ydpi="96.036186"
   xmlns:inkscape="http://www.inkscape.org/namespaces/inkscape"
   xmlns:sodipodi="http://sodipodi.sourceforge.net/DTD/sodipodi-0.dtd"
   xmlns:xlink="http://www.w3.org/1999/xlink"
   xmlns="http://www.w3.org/2000/svg"
   xmlns:svg="http://www.w3.org/2000/svg">
  <sodipodi:namedview
     id="namedview7"
     pagecolor="#ffffff"
     bordercolor="#111111"
     borderopacity="1"
     inkscape:pageshadow="0"
     inkscape:pageopacity="0"
     inkscape:pagecheckerboard="1"
     inkscape:document-units="mm"
     showgrid="false"
     width="100mm"
     units="px"
     inkscape:zoom="4.3473625"
     inkscape:cx="56.701046"
     inkscape:cy="56.471021"
     inkscape:window-width="1440"
     inkscape:window-height="837"
     inkscape:window-x="-8"
     inkscape:window-y="-8"
     inkscape:window-maximized="1"
     inkscape:current-layer="layer1" />
  <defs
     id="defs2">
    <linearGradient
       inkscape:collect="always"
       id="linearGradient943">
      <stop
         style="stop-color:#4d4d4d;stop-opacity:1"
         offset="0"
         id="stop939" />
      <stop
         style="stop-color:#ffffff;stop-opacity:1"
         offset="1"
         id="stop941" />
    </linearGradient>
    <linearGradient
       inkscape:collect="always"
       xlink:href="#linearGradient943"
       id="linearGradient945"
       x1="15.154304"
       y1="13.389345"
       x2="15.154304"
       y2="15.093442"
       gradientUnits="userSpaceOnUse" />
  </defs>
  <g
     inkscape:label="Layer 1"
     inkscape:groupmode="layer"
     id="layer1">
    <circle
       style="fill:url(#linearGradient945);stroke-width:3.31481;stroke-opacity:0.1;fill-opacity:1"
       id="path848"
       cy="13.229167"
       cx="13.229167"
       r="13.229167" />
    <path
       id="circle1088"
       style="fill:#000000;stroke-width:12.5284;stroke-opacity:0.1;fill-opacity:1"
       d="m 50.015625,0 c -0.07813,0.00242096 -0.156256,0.00502513 -0.234375,0.0078125 -0.158205,-9.982e-5 -0.31641,5.5123e-4 -0.474609,0.00195313 -0.207721,0.00521574 -0.415407,0.01172628 -0.623047,0.01953125 -0.388849,0.01173938 -0.777547,0.02801653 -1.166016,0.04882812 -0.238999,0.0080514 -0.477938,0.01781727 -0.716797,0.02929688 -0.14132,0.009816 -0.282597,0.020233 -0.423828,0.03125 -0.241685,0.0190763 -0.483227,0.0399102 -0.724609,0.0625 -0.158255,0.010315 -0.31646,0.0213828 -0.47461,0.0332031 -0.241752,0.0281839 -0.483295,0.0581326 -0.724609,0.0898438 l -0.01563,0.001953 c -0.199982,0.0176762 -0.399855,0.0365568 -0.599609,0.0566406 -0.146579,0.0208336 -0.293065,0.0423182 -0.439453,0.0644531 -0.254835,0.0344939 -0.5094,0.0709534 -0.763672,0.109375 -0.164826,0.0219646 -0.329542,0.0447514 -0.494141,0.0683594 -0.198135,0.0352631 -0.396055,0.0717221 -0.59375,0.109375 -0.223543,0.0336414 -0.446856,0.0687985 -0.669922,0.10546875 -0.119885,0.0249505 -0.239677,0.0503413 -0.359375,0.0761719 l 0.0039,-0.009766 c -0.07491,0.0167546 -0.149778,0.0336818 -0.224609,0.0507813 -0.207958,0.0422971 -0.415644,0.0859178 -0.623047,0.13085935 -0.179235,0.035477 -0.358274,0.071936 -0.537109,0.109375 -0.180584,0.043266 -0.360925,0.087537 -0.541016,0.1328125 -0.206024,0.045572 -0.411757,0.092448 -0.617187,0.140625 -0.08273,0.019971 -0.165416,0.040154 -0.248047,0.060547 -0.104911,0.028304 -0.209729,0.05695 -0.314453,0.085937 -0.229609,0.060866 -0.458782,0.1233677 -0.6875,0.1875 -0.169509,0.044682 -0.338783,0.090256 -0.507813,0.1367187 -0.17607,0.051766 -0.351854,0.1045014 -0.527344,0.1582032 -0.198282,0.058018 -0.396202,0.1172635 -0.59375,0.1777344 -0.08144,0.023881 -0.162821,0.04797 -0.24414,0.072266 -0.101024,0.034833 -0.201936,0.069989 -0.302735,0.1054687 -0.238224,0.07764 -0.47586,0.1570691 -0.71289,0.2382813 -0.18853,0.06268 -0.376684,0.1264833 -0.564453,0.1914062 -0.05146,0.016843 -0.102892,0.033771 -0.154297,0.050781 -0.08473,0.032972 -0.169361,0.066175 -0.253906,0.099609 -0.166991,0.06031 -0.33366,0.1215086 -0.5,0.1835938 -0.118654,0.043171 -0.237145,0.086791 -0.355469,0.1308594 -0.11084,0.045175 -0.221518,0.090749 -0.332031,0.1367187 -0.229196,0.090757 -0.457718,0.1832072 -0.685547,0.2773438 -0.174883,0.070627 -0.349365,0.1422425 -0.523438,0.2148437 -0.127828,0.053506 -0.255433,0.1075427 -0.382812,0.1621094 -0.143529,0.063128 -0.28676,0.1269307 -0.429688,0.1914062 -0.129148,0.056746 -0.258056,0.1140381 -0.386719,0.171875 -0.14551,0.06766 -0.290694,0.1360203 -0.435546,0.2050782 -0.193295,0.090562 -0.386007,0.1823606 -0.578126,0.2753906 -0.197898,0.095054 -0.395167,0.1914101 -0.591796,0.2890625 -0.08671,0.041417 -0.173298,0.083084 -0.259766,0.125 l -0.08984,0.042969 0.0059,0.00391 c -0.058,0.031136 -0.115947,0.062386 -0.173828,0.09375 -0.188108,0.095167 -0.375611,0.1915235 -0.5625,0.2890625 -0.155391,0.083164 -0.310341,0.1671501 -0.464844,0.2519531 -0.195381,0.1067715 -0.390047,0.2148468 -0.583985,0.3242188 -0.175073,0.097907 -0.349555,0.1968676 -0.523437,0.296875 -0.175751,0.1011472 -0.350884,0.2033626 -0.525391,0.3066406 -0.170523,0.1005525 -0.340448,0.2021168 -0.509765,0.3046875 -0.163339,0.099976 -0.326102,0.2008887 -0.488282,0.3027344 -0.17976,0.1127913 -0.3588,0.2267259 -0.537109,0.3417968 -0.18044,0.1160299 -0.360131,0.2332198 -0.539063,0.3515626 -0.160771,0.1058451 -0.32093,0.2126177 -0.480468,0.3203124 -0.155554,0.1065446 -0.310505,0.2139682 -0.464844,0.3222657 -0.174601,0.1206368 -0.348433,0.2423841 -0.521484,0.3652343 -0.08285,0.055742 -0.165533,0.1117316 -0.248047,0.1679688 -0.07961,0.060959 -0.159038,0.1221571 -0.238281,0.1835938 -0.179929,0.1322625 -0.358969,0.2657289 -0.53711,0.4003902 -0.13068,0.09637 -0.26089,0.193377 -0.390625,0.291016 -0.165544,0.130467 -0.330261,0.26198 -0.494141,0.394531 -0.185264,0.143884 -0.369513,0.28907 -0.552734,0.435547 -0.143889,0.11769 -0.28712,0.236182 -0.429687,0.355469 -0.164961,0.138262 -0.329027,0.277588 -0.492188,0.417969 -0.124851,0.102911 -0.249201,0.206428 -0.373047,0.310547 -0.151223,0.1358 -0.301616,0.272522 -0.451172,0.410156 -0.182815,0.160132 -0.364461,0.321594 -0.544922,0.484375 -0.132169,0.121686 -0.263681,0.244083 -0.394531,0.367187 -0.167115,0.158357 -0.333135,0.317866 -0.498047,0.478516 l -0.0039,0.0039 c -0.102607,0.09397 -0.204821,0.188376 -0.30664,0.283203 -0.139533,0.143048 -0.278208,0.286931 -0.416016,0.431641 -0.20488,0.202019 -0.408013,0.405802 -0.609375,0.611328 -0.09613,0.101162 -0.191832,0.202725 -0.287109,0.304688 -0.146847,0.156611 -0.292683,0.314166 -0.4375,0.472656 -0.116509,0.122458 -0.232396,0.245506 -0.347657,0.36914 -0.138382,0.159285 -0.275755,0.319445 -0.412109,0.480469 -0.181999,0.2023 -0.362344,0.406083 -0.541016,0.611328 -0.100159,0.118026 -0.199769,0.236517 -0.298828,0.355469 -0.117317,0.141284 -0.233855,0.283213 -0.349609,0.425781 -0.11006,0.132247 -0.219436,0.265062 -0.328125,0.398438 -0.153171,0.196779 -0.304868,0.394701 -0.455078,0.59375 -0.165081,0.208329 -0.328498,0.417971 -0.490235,0.628906 -0.081823,0.108392 -0.1632036,0.217117 -0.2441404,0.326172 -0.044395,0.0572 -0.088666,0.114487 -0.1328125,0.171875 -0.056889,0.08251 -0.11353,0.165195 -0.1699219,0.248047 -0.1049442,0.144623 -0.2091123,0.289807 -0.3125,0.435547 -0.1521565,0.219494 -0.3025519,0.440205 -0.4511718,0.662109 -0.1534635,0.219481 -0.3051611,0.440191 -0.4550782,0.662109 -0.066776,0.101321 -0.1331824,0.202884 -0.1992187,0.304688 -0.079325,0.124001 -0.1581016,0.248351 -0.2363281,0.373047 -0.108466,0.17122 -0.2158898,0.343098 -0.3222656,0.515625 -0.1546063,0.253196 -0.3069561,0.507764 -0.4570313,0.763672 -0.1298408,0.211931 -0.2580996,0.424828 -0.3847656,0.638672 -0.057643,0.100712 -0.1149348,0.201624 -0.171875,0.302734 -0.062926,0.111088 -0.1254266,0.222417 -0.1875,0.333984 -0.1041188,0.191383 -0.2069856,0.383444 -0.3085938,0.576172 -0.1451048,0.272113 -0.287689,0.545562 -0.4277343,0.820313 -0.09412,0.172626 -0.1872202,0.345806 -0.2792969,0.519531 h 0.00977 c -0.07029,0.136397 -0.1399527,0.273117 -0.2089844,0.410156 -0.055119,0.113725 -0.1098072,0.227658 -0.1640625,0.341797 -0.087772,0.18891 -0.1743618,0.378367 -0.2597656,0.568359 -0.1637247,0.356833 -0.323241,0.715582 -0.4785156,1.076172 -0.1215212,0.268473 -0.2406665,0.538015 -0.3574219,0.808594 -0.030772,0.07284 -0.061371,0.145761 -0.091797,0.21875 -0.018286,0.04164 -0.036515,0.08331 -0.054687,0.125 -0.071453,0.188375 -0.1417668,0.377181 -0.2109375,0.566406 -0.143034,0.367487 -0.2817156,0.736654 -0.4160156,1.107422 -0.103932,0.271245 -0.2054984,0.543391 -0.3046875,0.816406 -0.021606,0.06181 -0.04309,0.123656 -0.064453,0.185547 -0.073935,0.229942 -0.1462022,0.460417 -0.2167969,0.691407 -0.1322312,0.408504 -0.2591948,0.818694 -0.3808594,1.230468 -0.080177,0.255228 -0.1583047,0.511096 -0.234375,0.767578 -0.01374,0.04686 -0.027412,0.09373 -0.041016,0.140625 -0.061027,0.239791 -0.1202737,0.480032 -0.1777344,0.720703 -0.115496,0.443787 -0.2248814,0.889142 -0.328125,1.335938 -0.063186,0.253423 -0.1243862,0.507337 -0.1835937,0.761719 l -0.00195,0.0059 -0.013672,0.06055 c -0.010508,0.05467 -0.020925,0.109358 -0.03125,0.164063 -0.04325,0.227572 -0.0849174,0.455442 -0.12500002,0.683593 -0.0844042,0.428637 -0.16318697,0.858361 -0.23632813,1.289063 -0.0453323,0.236661 -0.0889532,0.473646 -0.13085937,0.710937 l -0.001953,0.01367 -0.005859,0.04883 v 0.0039 c -0.0280628,0.212716 -0.054756,0.425611 -0.0800781,0.638671 -0.009302,0.07876 -0.0184166,0.157531 -0.0273438,0.236329 l -0.003906,0.01758 -0.001953,0.01563 c -0.0574778,0.421844 -0.10956539,0.844404 -0.15625,1.267578 -0.0297002,0.237426 -0.0576957,0.475062 -0.0839844,0.71289 -0.003294,0.0358 -0.006549,0.07161 -0.009766,0.107422 -0.02254,0.316213 -0.0420721,0.632634 -0.0585937,0.949219 -0.0256038,0.268036 -0.04904205,0.536274 -0.07031251,0.804688 l 0.01953125,-0.0078 c -0.0255787,0.368891 -0.04706439,0.738054 -0.06445312,1.107422 -0.0026983,0.05598 -0.0053025,0.111975 -0.0078125,0.167969 -0.0057946,0.414038 -0.0064457,0.828133 -0.0019531,1.242187 -0.0080462,0.538387 -0.0073951,1.076869 0.0019531,1.615235 0.01705234,0.437129 0.03984077,0.874015 0.06835938,1.310546 0.02464694,0.553911 0.05850579,1.107373 0.1015625,1.660157 0.005043,0.07423 0.010251,0.148449 0.015625,0.222656 0.038108,0.343522 0.0797769,0.686639 0.125,1.029297 0.0598476,0.570819 0.12951941,1.140564 0.20898437,1.708984 0.0102067,0.08336 0.0206234,0.166693 0.03125,0.25 0.0640394,0.377074 0.13240324,0.753401 0.20507813,1.128906 0.0858372,0.51054 0.17959852,1.019716 0.28125002,1.527344 0.020472,0.108793 0.041306,0.217517 0.0625,0.326172 l 0.00586,0.03711 0.00195,-0.002 c 0.079803,0.338752 0.1631411,0.676661 0.25,1.013672 0.1147641,0.498594 0.2371744,0.995397 0.3671875,1.490234 0.1346973,0.482575 0.2766404,0.963098 0.4257812,1.441407 0.1377529,0.466276 0.2822995,0.930518 0.4335938,1.392578 0.1562066,0.455452 0.318984,0.908625 0.4882812,1.359375 0.1778835,0.491159 0.3634532,0.9795 0.5566407,1.464844 0.1775611,0.43224 0.3611728,0.86197 0.5507812,1.289062 0.2006427,0.46537 0.408349,0.927664 0.6230469,1.386719 0.069509,0.15661 0.1398223,0.312862 0.2109375,0.46875 l 0.013672,-0.01953 c 1.131529,2.342191 2.4441071,4.592511 3.9257813,6.730468 l 11.0429685,-27.193359 7.651012,-11.355821 11.054066,-6.653945 15.964844,-5.726562 18.478516,0.0059 25.861328,12.533203 c -0.876851,-4.348108 -2.328392,-8.560203 -4.316406,-12.52539 h 0.02344 c -0.08507,-0.159971 -0.171008,-0.319479 -0.257812,-0.478516 -0.253643,-0.490631 -0.515398,-0.977026 -0.785157,-1.458984 -0.211735,-0.385657 -0.42855,-0.768503 -0.65039,-1.148438 -0.285044,-0.478167 -0.578054,-0.95154 -0.878907,-1.419922 -0.234022,-0.373586 -0.472975,-0.744061 -0.716796,-1.111328 -0.322085,-0.471112 -0.652211,-0.936675 -0.990235,-1.396484 -0.243733,-0.343616 -0.4918,-0.684139 -0.74414,-1.021485 -0.367248,-0.472855 -0.74296,-0.939076 -1.126953,-1.398437 -0.248916,-0.31095 -0.501538,-0.618915 -0.757813,-0.923828 -0.346753,-0.392893 -0.699661,-0.780311 -1.058594,-1.162109 l 0.02148,-0.0078 c -0.152611,-0.157912 -0.30626,-0.314816 -0.460938,-0.470703 -0.165977,-0.182224 -0.333299,-0.363219 -0.501953,-0.542969 -0.233392,-0.232794 -0.469081,-0.463274 -0.707031,-0.691406 -0.300301,-0.297463 -0.604362,-0.591107 -0.91211,-0.880859 -0.18032,-0.175849 -0.361966,-0.350334 -0.544922,-0.523438 L 83.626953,13 c -0.223534,-0.195362 -0.448803,-0.388729 -0.675781,-0.580078 -0.332067,-0.294172 -0.668034,-0.583911 -1.007813,-0.869141 -0.182481,-0.155616 -0.36608,-0.309916 -0.550781,-0.46289 -0.234715,-0.182443 -0.471052,-0.362789 -0.708984,-0.541016 l -0.01758,-0.01367 C 80.308482,10.25159 79.94712,9.9748713 79.582031,9.703125 79.402587,9.5691023 79.222245,9.4362868 79.041016,9.3046875 78.750164,9.1030147 78.457178,8.9044358 78.162109,8.7089844 77.821902,8.4729606 77.478777,8.2411719 77.132812,8.0136719 76.938372,7.8873147 76.743055,7.7623117 76.546875,7.6386719 76.221008,7.4389525 75.892861,7.242976 75.5625,7.0507812 75.485156,7.003044 75.407681,6.9555178 75.330078,6.9082031 l 0.01367,-0.00977 C 75.244327,6.8434106 75.144717,6.7887228 75.044922,6.734375 74.888514,6.6430283 74.731611,6.5525322 74.574219,6.4628906 74.378972,6.354809 74.183004,6.2480358 73.986328,6.1425781 73.719404,5.9975585 73.451164,5.8549745 73.181641,5.7148438 72.910811,5.5710674 72.638663,5.4297853 72.365234,5.2910156 72.213934,5.2134194 72.06224,5.1365955 71.910156,5.0605469 71.875022,5.042276 71.839866,5.0240468 71.804688,5.0058594 71.650096,4.9354087 71.495146,4.8657463 71.339844,4.796875 71.032056,4.6517949 70.722795,4.5098604 70.412109,4.3710938 70.130722,4.2434775 69.848158,4.1184721 69.564453,3.9960938 69.444222,3.9422325 69.323778,3.8888467 69.203125,3.8359375 68.996624,3.755134 68.789588,3.6757052 68.582031,3.5976562 68.255912,3.4666027 67.928419,3.3389915 67.599609,3.2148438 67.331597,3.1122704 67.062707,3.0120063 66.792969,2.9140625 66.674,2.8686857 66.554859,2.8237635 66.435547,2.7792969 66.210797,2.7060858 65.985531,2.6344694 65.759766,2.5644531 65.39719,2.443095 65.033234,2.3258998 64.667969,2.2128906 64.439316,2.1402786 64.210143,2.0693133 63.980469,2 63.84327,1.9596973 63.705899,1.9199834 63.568359,1.8808594 63.3234,1.8158431 63.07795,1.7526902 62.832031,1.6914062 62.453635,1.5892905 62.074051,1.4916275 61.693359,1.3984375 61.497689,1.3490745 61.301722,1.3008965 61.105469,1.2539062 60.961727,1.2220208 60.817846,1.1907705 60.673828,1.1601562 60.400203,1.1031715 60.126104,1.0484821 59.851562,0.99609375 59.476103,0.91950465 59.099776,0.84723425 58.722656,0.77929688 c -0.17885,-0.0348326 -0.357889,-0.0686872 -0.537109,-0.1015625 -0.141837,-0.021444 -0.283765,-0.0422775 -0.425781,-0.0625 -0.17953,-0.0296265 -0.35922,-0.0582727 -0.539063,-0.0859375 l 0.0039,-0.003906 c -0.182176,-0.0218366 -0.36447,-0.0426702 -0.546875,-0.0625 C 56.368217,0.42027327 56.058308,0.38055798 55.748047,0.34375 55.579545,0.32010295 55.410923,0.2973162 55.242188,0.27539062 55.087295,0.26294961 54.932346,0.25123074 54.777344,0.24023438 54.612722,0.22118643 54.448006,0.20295704 54.283203,0.18554688 54.079505,0.17192916 53.875725,0.15955913 53.671875,0.1484375 53.371288,0.12488395 53.070495,0.10404977 52.769531,0.0859375 52.606823,0.07472454 52.44406,0.06430775 52.28125,0.0546875 52.108745,0.04988808 51.936217,0.04598178 51.763672,0.04296875 51.585988,0.03290529 51.408251,0.02379058 51.230469,0.015625 51.033848,0.01576732 50.83723,0.01706942 50.640625,0.01953125 50.432334,0.01171817 50.223997,0.00520762 50.015625,0 Z"
       transform="scale(0.26458333)"
       sodipodi:nodetypes="ccccccccccccccccccccccccccccccccccccccccccccccccccccccccccccccccccccccccccccccccccccccccccccccccccccccccccccccccccccccccccccccccccccccccccccccccccccccccccccccccccccccccccccccccccccccccccccccccccccccccccccccccccccccccccccccccccccccccccccccccccccccccc" />
  </g>
</svg>
